<svg width="378" height="152" viewBox="0 0 378 152" fill="none" xmlns="http://www.w3.org/2000/svg">
<path d="M49 76.2207V127.441H58.9306C67.7917 127.441 68.8611 127.136 68.8611 124.383C68.8611 121.784 67.7917 121.325 61.9861 121.325H55.1111V76.9852V32.6449H61.9861C68.25 32.6449 68.8611 32.3391 68.8611 28.8224C68.8611 25.1529 68.5556 25 58.9306 25H49V76.2207Z" fill="#F44A22"/>
<path d="M138.681 26.0703C138.069 26.529 137.611 28.3637 137.611 29.8927C137.611 32.1862 138.833 32.6449 144.486 32.6449H151.361V76.9852V121.325H144.486C138.681 121.325 137.611 121.784 137.611 124.383C137.611 127.136 138.681 127.441 148.306 127.441H159V76.2207V25H149.375C144.028 25 139.139 25.4587 138.681 26.0703Z" fill="#F44A22"/>
<path d="M111.928 46.5414C89.3172 52.9631 67.6228 83.2369 74.1922 98.9853C80.1506 112.899 100.623 109.688 118.803 91.7991C135.456 75.592 139.887 54.7979 128.123 47.7646C122.776 44.4009 119.873 44.248 111.928 46.5414Z" fill="#F44A22"/>
<path d="M189 91.24L199.71 61.84H206.388L217.14 91.24H210.924L201.852 65.032H204.246L195.174 91.24H189ZM193.956 84.646L195.51 80.068H210.63L212.184 84.646H193.956Z" fill="white"/>
<path d="M226.566 91.744C223.766 91.744 221.47 91.086 219.678 89.77C217.886 88.454 216.878 86.732 216.654 84.604H222.66C222.856 85.416 223.332 86.074 224.088 86.578C224.844 87.054 225.74 87.292 226.776 87.292C227.924 87.292 228.792 87.096 229.38 86.704C229.996 86.284 230.304 85.78 230.304 85.192C230.304 84.716 230.08 84.338 229.632 84.058C229.184 83.75 228.414 83.54 227.322 83.428C226.93 83.372 226.384 83.288 225.684 83.176C225.012 83.064 224.466 82.966 224.046 82.882C222.87 82.658 221.792 82.294 220.812 81.79C219.86 81.258 219.104 80.572 218.544 79.732C217.984 78.864 217.704 77.814 217.704 76.582C217.704 74.706 218.404 73.124 219.804 71.836C221.204 70.548 223.262 69.904 225.978 69.904C228.722 69.904 230.878 70.506 232.446 71.71C234.042 72.914 234.938 74.58 235.134 76.708H229.464C229.38 75.952 229.002 75.378 228.33 74.986C227.658 74.594 226.888 74.398 226.02 74.398C224.956 74.398 224.158 74.58 223.626 74.944C223.094 75.308 222.828 75.756 222.828 76.288C222.828 77.156 223.696 77.744 225.432 78.052C225.684 78.08 226.034 78.136 226.482 78.22C226.958 78.276 227.434 78.346 227.91 78.43C228.414 78.486 228.806 78.542 229.086 78.598C229.926 78.71 230.738 78.906 231.522 79.186C232.334 79.438 233.048 79.788 233.664 80.236C234.308 80.684 234.812 81.272 235.176 82C235.54 82.728 235.722 83.624 235.722 84.688C235.722 86.088 235.372 87.32 234.672 88.384C233.972 89.448 232.936 90.274 231.564 90.862C230.22 91.45 228.554 91.744 226.566 91.744Z" fill="white"/>
<path d="M238.457 91.24V61H244.337V73.474C245.009 72.382 245.933 71.514 247.109 70.87C248.313 70.226 249.685 69.904 251.225 69.904C253.829 69.904 255.831 70.744 257.231 72.424C258.631 74.076 259.331 76.47 259.331 79.606V91.24H253.493V80.152C253.493 78.444 253.157 77.142 252.485 76.246C251.813 75.322 250.735 74.86 249.251 74.86C247.823 74.86 246.647 75.364 245.723 76.372C244.799 77.352 244.337 78.724 244.337 80.488V91.24H238.457Z" fill="white"/>
<path d="M276.355 91.744C273.387 91.744 270.825 91.114 268.669 89.854C266.541 88.566 264.903 86.788 263.755 84.52C262.607 82.224 262.033 79.578 262.033 76.582C262.033 73.586 262.607 70.94 263.755 68.644C264.903 66.348 266.541 64.556 268.669 63.268C270.825 61.98 273.387 61.336 276.355 61.336C279.939 61.336 282.879 62.232 285.175 64.024C287.471 65.816 288.885 68.336 289.417 71.584H282.949C282.613 70.016 281.871 68.812 280.723 67.972C279.603 67.104 278.119 66.67 276.271 66.67C274.535 66.67 273.051 67.076 271.819 67.888C270.587 68.672 269.635 69.806 268.963 71.29C268.319 72.774 267.997 74.538 267.997 76.582C267.997 78.626 268.319 80.39 268.963 81.874C269.635 83.33 270.587 84.464 271.819 85.276C273.051 86.06 274.535 86.452 276.271 86.452C278.119 86.452 279.603 86.06 280.723 85.276C281.843 84.464 282.571 83.316 282.907 81.832H289.375C288.843 84.94 287.429 87.376 285.133 89.14C282.865 90.876 279.939 91.744 276.355 91.744Z" fill="white"/>
<path d="M302.075 91.744C299.975 91.744 298.071 91.282 296.363 90.358C294.683 89.434 293.339 88.146 292.33 86.494C291.35 84.842 290.86 82.952 290.86 80.824C290.86 78.668 291.35 76.778 292.33 75.154C293.339 73.502 294.697 72.214 296.405 71.29C298.113 70.366 300.003 69.904 302.075 69.904C304.174 69.904 306.064 70.366 307.744 71.29C309.452 72.214 310.797 73.502 311.777 75.154C312.785 76.778 313.288 78.668 313.288 80.824C313.288 82.952 312.785 84.842 311.777 86.494C310.797 88.146 309.452 89.434 307.744 90.358C306.064 91.282 304.174 91.744 302.075 91.744ZM302.075 86.662C303.027 86.662 303.895 86.452 304.678 86.032C305.462 85.584 306.079 84.926 306.527 84.058C307.003 83.19 307.241 82.112 307.241 80.824C307.241 79.536 307.003 78.458 306.527 77.59C306.051 76.722 305.42 76.078 304.636 75.658C303.881 75.21 303.041 74.986 302.117 74.986C301.165 74.986 300.296 75.21 299.512 75.658C298.729 76.078 298.098 76.722 297.622 77.59C297.146 78.43 296.909 79.508 296.909 80.824C296.909 82.112 297.132 83.19 297.58 84.058C298.056 84.926 298.687 85.584 299.47 86.032C300.254 86.452 301.122 86.662 302.075 86.662Z" fill="white"/>
<path d="M315.69 91.24V70.408H321.57V73.558C322.13 72.522 322.83 71.71 323.67 71.122C324.51 70.506 325.462 70.198 326.526 70.198H329.088V75.406H325.938C324.902 75.406 324.062 75.672 323.418 76.204C322.774 76.736 322.298 77.534 321.99 78.598C321.71 79.634 321.57 80.908 321.57 82.42V91.24H315.69Z" fill="white"/>
<path d="M339.926 91.744C337.77 91.744 335.866 91.296 334.214 90.4C332.562 89.476 331.274 88.216 330.35 86.62C329.426 84.996 328.964 83.134 328.964 81.034C328.964 78.878 329.412 76.96 330.308 75.28C331.232 73.6 332.52 72.284 334.172 71.332C335.824 70.38 337.742 69.904 339.926 69.904C341.998 69.904 343.832 70.352 345.428 71.248C347.024 72.144 348.27 73.376 349.166 74.944C350.062 76.484 350.51 78.248 350.51 80.236C350.51 80.516 350.51 80.838 350.51 81.202C350.51 81.538 350.482 81.888 350.426 82.252H333.164V78.724H344.546C344.462 77.492 343.986 76.512 343.118 75.784C342.278 75.028 341.228 74.65 339.968 74.65C339.016 74.65 338.134 74.86 337.322 75.28C336.538 75.7 335.908 76.344 335.432 77.212C334.984 78.052 334.76 79.13 334.76 80.446V81.664C334.76 82.728 334.97 83.666 335.39 84.478C335.838 85.262 336.44 85.878 337.196 86.326C337.98 86.746 338.876 86.956 339.884 86.956C340.864 86.956 341.69 86.746 342.362 86.326C343.034 85.878 343.552 85.304 343.916 84.604H349.922C349.53 85.948 348.858 87.166 347.906 88.258C346.982 89.322 345.834 90.176 344.462 90.82C343.118 91.436 341.606 91.744 339.926 91.744Z" fill="white"/>
</svg>
