<svg width="378" height="152" viewBox="0 0 378 152" fill="none" xmlns="http://www.w3.org/2000/svg">
<path d="M134 51.2207V102.441H143.931C152.792 102.441 153.861 102.136 153.861 99.3834C153.861 96.7842 152.792 96.3255 146.986 96.3255H140.111V51.9852V7.64487H146.986C153.25 7.64487 153.861 7.33908 153.861 3.82243C153.861 0.152893 153.556 -7.62939e-06 143.931 -7.62939e-06H134V51.2207Z" fill="#F44A22"/>
<path d="M223.681 1.07028C223.069 1.52897 222.611 3.36375 222.611 4.89272C222.611 7.18618 223.833 7.64487 229.486 7.64487H236.361V51.9852V96.3255H229.486C223.681 96.3255 222.611 96.7842 222.611 99.3834C222.611 102.136 223.681 102.441 233.306 102.441H244V51.2207V-7.62939e-06H234.375C229.028 -7.62939e-06 224.139 0.458687 223.681 1.07028Z" fill="#F44A22"/>
<path d="M196.792 21.7115C174.181 28.1332 152.486 58.4069 159.056 74.1553C165.014 88.069 185.486 84.8582 203.667 66.9692C220.319 50.762 224.75 29.9679 212.986 22.9347C207.639 19.5709 204.736 19.418 196.792 21.7115Z" fill="#F44A22"/>
<path d="M5.79999 140V114.8H22.252V118.58H10.48V125.384H21.172V129.056H10.48V136.22H22.252V140H5.79999Z" fill="white"/>
<path d="M24.8822 140V122.144H29.5622V124.844C30.1382 123.884 30.9302 123.128 31.9382 122.576C32.9462 122 34.1222 121.712 35.4662 121.712C37.6982 121.712 39.4142 122.42 40.6142 123.836C41.8142 125.228 42.4142 127.268 42.4142 129.956V140H37.7342V130.388C37.7342 128.852 37.4222 127.688 36.7982 126.896C36.1982 126.08 35.2382 125.672 33.9182 125.672C32.6462 125.672 31.6022 126.128 30.7862 127.04C29.9702 127.928 29.5622 129.176 29.5622 130.784V140H24.8822Z" fill="white"/>
<path d="M45.3783 140V122.144H50.0583V140H45.3783ZM45.4863 119.192V114.656H50.0223V119.192H45.4863Z" fill="white"/>
<path d="M62.7992 148.352C61.2632 148.352 59.7992 148.1 58.4072 147.596C57.0392 147.092 55.8752 146.3 54.9152 145.22C53.9552 144.164 53.3792 142.796 53.1872 141.116H57.8312C58.0472 142.1 58.5992 142.88 59.4872 143.456C60.3992 144.032 61.4672 144.32 62.6912 144.32C63.6032 144.32 64.4312 144.128 65.1752 143.744C65.9432 143.36 66.5552 142.784 67.0112 142.016C67.4672 141.272 67.6952 140.312 67.6952 139.136V136.904C67.3352 137.48 66.8672 138.008 66.2912 138.488C65.7152 138.968 65.0312 139.364 64.2392 139.676C63.4712 139.964 62.5832 140.108 61.5752 140.108C59.8712 140.108 58.3352 139.7 56.9672 138.884C55.6232 138.068 54.5552 136.964 53.7632 135.572C52.9952 134.18 52.6112 132.62 52.6112 130.892C52.6112 129.14 52.9952 127.58 53.7632 126.212C54.5552 124.82 55.6232 123.728 56.9672 122.936C58.3352 122.12 59.8712 121.712 61.5752 121.712C62.9432 121.712 64.1552 122 65.2112 122.576C66.2672 123.128 67.0952 123.812 67.6952 124.628V122.144H72.3752V138.884C72.3752 140.948 71.9312 142.676 71.0432 144.068C70.1792 145.484 69.0152 146.552 67.5512 147.272C66.1112 147.992 64.5272 148.352 62.7992 148.352ZM62.5112 136.04C63.5432 136.04 64.4312 135.812 65.1752 135.356C65.9432 134.9 66.5432 134.288 66.9752 133.52C67.4072 132.752 67.6232 131.888 67.6232 130.928C67.6232 129.92 67.4072 129.032 66.9752 128.264C66.5432 127.496 65.9432 126.896 65.1752 126.464C64.4312 126.008 63.5432 125.78 62.5112 125.78C61.5032 125.78 60.6152 126.008 59.8472 126.464C59.0792 126.896 58.4672 127.496 58.0112 128.264C57.5792 129.032 57.3632 129.908 57.3632 130.892C57.3632 131.852 57.5792 132.728 58.0112 133.52C58.4672 134.288 59.0792 134.9 59.8472 135.356C60.6152 135.812 61.5032 136.04 62.5112 136.04Z" fill="white"/>
<path d="M75.3315 140V122.144H80.0115V124.34C80.5875 123.524 81.3435 122.888 82.2795 122.432C83.2155 121.952 84.2715 121.712 85.4475 121.712C86.8155 121.712 87.9915 121.988 88.9755 122.54C89.9595 123.068 90.7275 123.848 91.2795 124.88C91.9515 123.896 92.8275 123.128 93.9075 122.576C94.9875 122 96.1875 121.712 97.5075 121.712C99.8355 121.712 101.623 122.42 102.871 123.836C104.119 125.228 104.743 127.268 104.743 129.956V140H100.099V130.388C100.099 128.852 99.7995 127.688 99.1995 126.896C98.6235 126.08 97.7115 125.672 96.4635 125.672C95.2395 125.672 94.2555 126.128 93.5115 127.04C92.7675 127.928 92.3955 129.176 92.3955 130.784V140H87.7515V130.388C87.7515 128.852 87.4395 127.688 86.8155 126.896C86.2155 126.08 85.3035 125.672 84.0795 125.672C82.8795 125.672 81.8955 126.128 81.1275 127.04C80.3835 127.928 80.0115 129.176 80.0115 130.784V140H75.3315Z" fill="white"/>
<path d="M113.83 140.432C112.486 140.432 111.322 140.192 110.338 139.712C109.378 139.232 108.646 138.584 108.142 137.768C107.638 136.952 107.386 136.052 107.386 135.068C107.386 133.196 108.058 131.756 109.402 130.748C110.746 129.716 112.51 129.2 114.694 129.2C115.726 129.2 116.614 129.272 117.358 129.416C118.102 129.56 118.714 129.716 119.194 129.884V129.02C119.194 127.772 118.834 126.86 118.114 126.284C117.418 125.708 116.506 125.42 115.378 125.42C114.586 125.42 113.878 125.588 113.254 125.924C112.63 126.236 112.234 126.8 112.066 127.616H107.638C107.782 126.344 108.214 125.276 108.934 124.412C109.654 123.524 110.566 122.852 111.67 122.396C112.798 121.94 114.034 121.712 115.378 121.712C118.042 121.712 120.118 122.348 121.606 123.62C123.118 124.892 123.874 126.692 123.874 129.02V133.052C123.874 133.964 123.922 134.636 124.018 135.068C124.138 135.5 124.318 135.776 124.558 135.896C124.798 136.016 125.122 136.076 125.53 136.076H125.674V140H124.666C123.394 140 122.338 139.832 121.498 139.496C120.658 139.16 120.046 138.5 119.662 137.516C119.062 138.356 118.27 139.052 117.286 139.604C116.302 140.156 115.15 140.432 113.83 140.432ZM114.874 136.868C115.642 136.868 116.29 136.7 116.818 136.364C117.37 136.004 117.826 135.524 118.186 134.924C118.546 134.3 118.798 133.628 118.942 132.908C118.438 132.764 117.85 132.632 117.178 132.512C116.53 132.368 115.87 132.296 115.198 132.296C114.262 132.296 113.506 132.512 112.93 132.944C112.378 133.352 112.102 133.928 112.102 134.672C112.102 135.32 112.342 135.848 112.822 136.256C113.326 136.664 114.01 136.868 114.874 136.868Z" fill="white"/>
<path d="M137.53 140L146.71 114.8H152.002L161.218 140H156.286L148.402 117.392H150.31L142.426 140H137.53ZM141.778 134.204L143.038 130.532H155.71L156.97 134.204H141.778Z" fill="white"/>
<path d="M168.713 140.432C166.673 140.432 165.053 139.736 163.853 138.344C162.677 136.928 162.089 134.876 162.089 132.188V122.144H166.769V131.756C166.769 133.292 167.057 134.468 167.633 135.284C168.233 136.076 169.097 136.472 170.225 136.472C171.497 136.472 172.481 136.028 173.177 135.14C173.873 134.228 174.221 132.968 174.221 131.36V122.144H178.901V140H174.221V137.372C173.693 138.308 172.973 139.052 172.061 139.604C171.149 140.156 170.033 140.432 168.713 140.432Z" fill="white"/>
<path d="M189.092 140C187.892 140 186.872 139.868 186.032 139.604C185.216 139.316 184.604 138.776 184.196 137.984C183.788 137.168 183.584 136.004 183.584 134.492V126.068H180.524V122.144H183.584V117.356H188.264V122.144H192.764V126.068H188.264V133.916C188.264 134.516 188.324 134.972 188.444 135.284C188.564 135.572 188.792 135.764 189.128 135.86C189.464 135.956 189.92 136.004 190.496 136.004H192.656V140H189.092Z" fill="white"/>
<path d="M194.581 140V114.08H199.261V124.844C199.837 123.884 200.641 123.128 201.673 122.576C202.729 122 203.905 121.712 205.201 121.712C207.409 121.712 209.113 122.42 210.313 123.836C211.537 125.228 212.149 127.268 212.149 129.956V140H207.505V130.388C207.505 128.852 207.193 127.688 206.569 126.896C205.969 126.08 205.021 125.672 203.725 125.672C202.429 125.672 201.361 126.128 200.521 127.04C199.681 127.928 199.261 129.176 199.261 130.784V140H194.581Z" fill="white"/>
<path d="M223.753 140.432C221.929 140.432 220.321 140.048 218.929 139.28C217.537 138.488 216.445 137.408 215.653 136.04C214.861 134.648 214.465 133.04 214.465 131.216C214.465 129.368 214.849 127.724 215.617 126.284C216.409 124.844 217.501 123.728 218.893 122.936C220.285 122.12 221.905 121.712 223.753 121.712C225.529 121.712 227.089 122.096 228.433 122.864C229.777 123.632 230.821 124.676 231.565 125.996C232.333 127.316 232.717 128.816 232.717 130.496C232.717 130.736 232.717 131 232.717 131.288C232.717 131.576 232.693 131.876 232.645 132.188H217.849V129.308H228.001C227.929 128.156 227.497 127.232 226.705 126.536C225.913 125.84 224.941 125.492 223.789 125.492C222.925 125.492 222.133 125.684 221.413 126.068C220.693 126.452 220.117 127.028 219.685 127.796C219.277 128.54 219.073 129.5 219.073 130.676V131.684C219.073 132.692 219.277 133.568 219.685 134.312C220.093 135.056 220.645 135.632 221.341 136.04C222.037 136.424 222.829 136.616 223.717 136.616C224.629 136.616 225.397 136.412 226.021 136.004C226.645 135.596 227.125 135.056 227.461 134.384H232.213C231.877 135.512 231.313 136.544 230.521 137.48C229.753 138.392 228.793 139.112 227.641 139.64C226.489 140.168 225.193 140.432 223.753 140.432Z" fill="white"/>
<path d="M235.152 140V122.144H239.832V124.844C240.408 123.884 241.2 123.128 242.208 122.576C243.216 122 244.392 121.712 245.736 121.712C247.968 121.712 249.684 122.42 250.884 123.836C252.084 125.228 252.684 127.268 252.684 129.956V140H248.004V130.388C248.004 128.852 247.692 127.688 247.068 126.896C246.468 126.08 245.508 125.672 244.188 125.672C242.916 125.672 241.872 126.128 241.056 127.04C240.24 127.928 239.832 129.176 239.832 130.784V140H235.152Z" fill="white"/>
<path d="M262.393 140C261.193 140 260.173 139.868 259.333 139.604C258.517 139.316 257.905 138.776 257.497 137.984C257.089 137.168 256.885 136.004 256.885 134.492V126.068H253.825V122.144H256.885V117.356H261.565V122.144H266.065V126.068H261.565V133.916C261.565 134.516 261.625 134.972 261.745 135.284C261.865 135.572 262.093 135.764 262.429 135.86C262.765 135.956 263.221 136.004 263.797 136.004H265.957V140H262.393Z" fill="white"/>
<path d="M267.917 140V122.144H272.597V140H267.917ZM268.025 119.192V114.656H272.561V119.192H268.025Z" fill="white"/>
<path d="M284.186 140.432C282.362 140.432 280.742 140.036 279.326 139.244C277.934 138.428 276.83 137.324 276.014 135.932C275.222 134.516 274.826 132.896 274.826 131.072C274.826 129.248 275.222 127.64 276.014 126.248C276.83 124.832 277.934 123.728 279.326 122.936C280.742 122.12 282.362 121.712 284.186 121.712C286.466 121.712 288.386 122.312 289.946 123.512C291.506 124.688 292.502 126.32 292.934 128.408H288.002C287.786 127.592 287.33 126.944 286.634 126.464C285.938 125.96 285.11 125.708 284.15 125.708C283.334 125.708 282.578 125.924 281.882 126.356C281.186 126.788 280.634 127.4 280.226 128.192C279.818 128.984 279.614 129.944 279.614 131.072C279.614 132.176 279.818 133.136 280.226 133.952C280.634 134.768 281.186 135.392 281.882 135.824C282.578 136.232 283.334 136.436 284.15 136.436C285.11 136.436 285.938 136.208 286.634 135.752C287.33 135.272 287.786 134.6 288.002 133.736H292.934C292.526 135.752 291.53 137.372 289.946 138.596C288.386 139.82 286.466 140.432 284.186 140.432Z" fill="white"/>
<path d="M300.862 140.432C299.518 140.432 298.354 140.192 297.37 139.712C296.41 139.232 295.678 138.584 295.174 137.768C294.67 136.952 294.418 136.052 294.418 135.068C294.418 133.196 295.09 131.756 296.434 130.748C297.778 129.716 299.542 129.2 301.726 129.2C302.758 129.2 303.646 129.272 304.39 129.416C305.134 129.56 305.746 129.716 306.226 129.884V129.02C306.226 127.772 305.866 126.86 305.146 126.284C304.45 125.708 303.538 125.42 302.41 125.42C301.618 125.42 300.91 125.588 300.286 125.924C299.662 126.236 299.266 126.8 299.098 127.616H294.67C294.814 126.344 295.246 125.276 295.966 124.412C296.686 123.524 297.598 122.852 298.702 122.396C299.83 121.94 301.066 121.712 302.41 121.712C305.074 121.712 307.15 122.348 308.638 123.62C310.15 124.892 310.906 126.692 310.906 129.02V133.052C310.906 133.964 310.954 134.636 311.05 135.068C311.17 135.5 311.35 135.776 311.59 135.896C311.83 136.016 312.154 136.076 312.562 136.076H312.706V140H311.698C310.426 140 309.37 139.832 308.53 139.496C307.69 139.16 307.078 138.5 306.694 137.516C306.094 138.356 305.302 139.052 304.318 139.604C303.334 140.156 302.182 140.432 300.862 140.432ZM301.906 136.868C302.674 136.868 303.322 136.7 303.85 136.364C304.402 136.004 304.858 135.524 305.218 134.924C305.578 134.3 305.83 133.628 305.974 132.908C305.47 132.764 304.882 132.632 304.21 132.512C303.562 132.368 302.902 132.296 302.23 132.296C301.294 132.296 300.538 132.512 299.962 132.944C299.41 133.352 299.134 133.928 299.134 134.672C299.134 135.32 299.374 135.848 299.854 136.256C300.358 136.664 301.042 136.868 301.906 136.868Z" fill="white"/>
<path d="M321.385 140C320.185 140 319.165 139.868 318.325 139.604C317.509 139.316 316.897 138.776 316.489 137.984C316.081 137.168 315.877 136.004 315.877 134.492V126.068H312.817V122.144H315.877V117.356H320.557V122.144H325.057V126.068H320.557V133.916C320.557 134.516 320.617 134.972 320.737 135.284C320.857 135.572 321.085 135.764 321.421 135.86C321.757 135.956 322.213 136.004 322.789 136.004H324.949V140H321.385Z" fill="white"/>
<path d="M326.91 140V122.144H331.59V140H326.91ZM327.018 119.192V114.656H331.554V119.192H327.018Z" fill="white"/>
<path d="M343.43 140.432C341.63 140.432 340.01 140.036 338.57 139.244C337.13 138.452 335.99 137.348 335.15 135.932C334.31 134.516 333.891 132.896 333.891 131.072C333.891 129.224 334.31 127.604 335.15 126.212C335.99 124.796 337.13 123.692 338.57 122.9C340.034 122.108 341.654 121.712 343.43 121.712C345.23 121.712 346.85 122.108 348.29 122.9C349.73 123.692 350.87 124.796 351.71 126.212C352.55 127.604 352.97 129.224 352.97 131.072C352.97 132.896 352.55 134.516 351.71 135.932C350.87 137.348 349.73 138.452 348.29 139.244C346.85 140.036 345.23 140.432 343.43 140.432ZM343.43 136.4C344.294 136.4 345.086 136.208 345.806 135.824C346.526 135.416 347.09 134.816 347.498 134.024C347.93 133.232 348.146 132.248 348.146 131.072C348.146 129.896 347.93 128.912 347.498 128.12C347.066 127.328 346.49 126.74 345.77 126.356C345.074 125.948 344.306 125.744 343.466 125.744C342.602 125.744 341.81 125.948 341.09 126.356C340.37 126.764 339.794 127.364 339.362 128.156C338.93 128.924 338.714 129.896 338.714 131.072C338.714 132.248 338.918 133.232 339.326 134.024C339.758 134.816 340.334 135.416 341.054 135.824C341.774 136.208 342.566 136.4 343.43 136.4Z" fill="white"/>
<path d="M355.281 140V122.144H359.961V124.844C360.537 123.884 361.329 123.128 362.337 122.576C363.345 122 364.521 121.712 365.865 121.712C368.097 121.712 369.813 122.42 371.013 123.836C372.213 125.228 372.813 127.268 372.813 129.956V140H368.133V130.388C368.133 128.852 367.821 127.688 367.197 126.896C366.597 126.08 365.637 125.672 364.317 125.672C363.045 125.672 362.001 126.128 361.185 127.04C360.369 127.928 359.961 129.176 359.961 130.784V140H355.281Z" fill="white"/>
</svg>
