<svg width="527" height="93" viewBox="0 0 527 93" fill="none" xmlns="http://www.w3.org/2000/svg">
<path d="M106.718 36.7219C109.877 36.7219 112.791 36.7219 115.807 36.7219C115.807 38.0744 115.807 39.1074 115.807 40.3649C105.862 40.8361 97.1091 44.2397 89.9587 51.3959C82.8447 58.5156 79.3968 67.1852 78.9394 77.2636C77.781 77.2636 76.6872 77.2636 75.2623 77.2636C75.2623 70.1771 75.2623 63.1293 75.2623 56.0932C61.8641 55.7462 41.2553 67.9292 40.3601 92.4364C39.2834 92.4364 38.1936 92.4364 36.5732 92.4364C36.5732 89.6309 36.588 86.751 36.5704 83.8714C36.5242 76.3137 36.4659 68.7561 36.4085 61.1985C36.3809 57.5651 34.8673 56.0457 31.2059 56.0122C21.8665 55.9268 12.5268 55.8603 3.18738 55.7699C2.14806 55.7598 1.10973 55.6437 0 55.5722C0 54.393 0 53.3515 0 52.1189C10.0098 51.6789 18.7639 48.216 25.8822 41.045C32.947 33.9279 36.4701 25.2601 36.7866 15.2011C38.0173 15.2011 39.0477 15.2011 40.4306 15.2011C40.4306 22.2121 40.4306 29.2366 40.4306 36.6452C50.4732 35.9885 58.5391 32.0637 65.1506 25.133C71.8155 18.1463 75.0749 9.66667 75.4091 0C76.6677 0 77.7798 0 79.4163 0C79.4163 10.5708 79.4013 21.0439 79.4249 31.517C79.4325 34.8974 80.9706 36.4405 84.3053 36.4832C91.6947 36.578 99.0845 36.6441 106.718 36.7219ZM55.2815 40.6519C50.5179 40.6519 45.7543 40.6519 40.8102 40.6519C40.8102 42.8627 40.767 45.0339 40.8209 47.2027C40.8911 50.0221 42.3295 51.507 45.1941 51.6025C49.0818 51.7321 52.9733 51.7801 56.8635 51.8001C62.8394 51.831 68.8156 51.8082 75.023 51.8082C75.023 49.7337 75.059 47.6449 75.0145 45.5579C74.9497 42.5147 73.4467 40.9549 70.3535 40.8729C65.4929 40.7439 60.6296 40.7202 55.2815 40.6519Z" fill="#F44A22"/>
<path d="M150.564 66.5961C148.741 66.5961 146.936 66.3542 145.15 65.8705C143.364 65.3496 141.727 64.5497 140.239 63.4707C138.751 62.3545 137.504 60.9406 136.5 59.2291C135.532 57.4803 134.956 55.3967 134.77 52.9783H141.467C141.764 54.8758 142.378 56.3641 143.309 57.4431C144.276 58.5221 145.411 59.2849 146.713 59.7314C148.052 60.1406 149.373 60.3453 150.676 60.3453C152.127 60.3453 153.41 60.122 154.526 59.6755C155.68 59.2291 156.573 58.5965 157.205 57.778C157.875 56.9222 158.21 55.9362 158.21 54.82C158.21 53.6666 157.894 52.6434 157.261 51.7504C156.629 50.8203 155.271 50.1691 153.187 49.7971L146.546 48.5692C143.346 47.9739 140.834 46.7089 139.011 44.7741C137.225 42.8021 136.332 40.4767 136.332 37.7978C136.332 35.3421 136.946 33.2585 138.174 31.547C139.402 29.8355 141.058 28.5146 143.141 27.5844C145.225 26.6543 147.513 26.1892 150.006 26.1892C152.61 26.1892 154.954 26.6356 157.038 27.5286C159.122 28.4216 160.814 29.7982 162.117 31.6586C163.419 33.4818 164.2 35.8444 164.461 38.7466H157.652C157.429 37.0722 156.926 35.7886 156.145 34.8956C155.401 33.9654 154.489 33.3143 153.41 32.9422C152.368 32.5702 151.289 32.3841 150.173 32.3841C149.131 32.3841 148.052 32.5516 146.936 32.8864C145.82 33.2213 144.89 33.7794 144.146 34.5608C143.402 35.3049 143.03 36.3281 143.03 37.6303C143.03 38.7466 143.439 39.7511 144.257 40.6441C145.113 41.4999 146.471 42.0952 148.332 42.4301L154.471 43.5463C157.745 44.1416 160.312 45.3136 162.173 47.0623C164.07 48.7739 165.019 51.2853 165.019 54.5968C165.019 56.5688 164.591 58.2989 163.735 59.7872C162.917 61.2382 161.819 62.4847 160.442 63.5265C159.066 64.5311 157.522 65.2938 155.81 65.8147C154.099 66.3356 152.35 66.5961 150.564 66.5961Z" fill="#F44A22"/>
<path d="M169.451 65.9263V25.7427H176.707V42.4301C177.6 40.9418 178.846 39.7698 180.446 38.914C182.083 38.021 183.906 37.5745 185.916 37.5745C189.339 37.5745 191.98 38.6721 193.841 40.8674C195.738 43.0254 196.687 46.188 196.687 50.3552V65.9263H189.488V51.0249C189.488 48.6436 189.004 46.8391 188.036 45.6113C187.106 44.3462 185.637 43.7137 183.627 43.7137C181.618 43.7137 179.962 44.4206 178.66 45.8345C177.358 47.2112 176.707 49.1459 176.707 51.6388V65.9263H169.451Z" fill="#F44A22"/>
<path d="M215.068 66.5961C212.277 66.5961 209.766 65.9821 207.533 64.7543C205.301 63.5265 203.533 61.815 202.231 59.6197C200.929 57.4245 200.278 54.913 200.278 52.0853C200.278 49.2204 200.929 46.7089 202.231 44.5509C203.533 42.3556 205.301 40.6441 207.533 39.4163C209.803 38.1884 212.314 37.5745 215.068 37.5745C217.858 37.5745 220.37 38.1884 222.602 39.4163C224.834 40.6441 226.602 42.3556 227.904 44.5509C229.206 46.7089 229.857 49.2204 229.857 52.0853C229.857 54.913 229.206 57.4245 227.904 59.6197C226.602 61.815 224.834 63.5265 222.602 64.7543C220.37 65.9821 217.858 66.5961 215.068 66.5961ZM215.068 60.3453C216.407 60.3453 217.635 60.0476 218.751 59.4523C219.867 58.8198 220.742 57.8896 221.374 56.6618C222.044 55.4339 222.379 53.9084 222.379 52.0853C222.379 50.2622 222.044 48.7367 221.374 47.5088C220.704 46.281 219.811 45.3694 218.695 44.7741C217.616 44.1416 216.426 43.8253 215.123 43.8253C213.784 43.8253 212.556 44.1416 211.44 44.7741C210.324 45.4066 209.431 46.3368 208.761 47.5646C208.091 48.7553 207.756 50.2622 207.756 52.0853C207.756 53.9084 208.073 55.4339 208.705 56.6618C209.375 57.8896 210.268 58.8198 211.384 59.4523C212.5 60.0476 213.728 60.3453 215.068 60.3453Z" fill="#F44A22"/>
<path d="M246.833 66.5961C244.006 66.5961 241.494 65.9821 239.299 64.7543C237.141 63.4893 235.429 61.7777 234.164 59.6197C232.937 57.4245 232.323 54.913 232.323 52.0853C232.323 49.2576 232.937 46.7647 234.164 44.6067C235.429 42.4115 237.141 40.6999 239.299 39.4721C241.494 38.2071 244.006 37.5745 246.833 37.5745C250.368 37.5745 253.345 38.5047 255.763 40.3651C258.182 42.1882 259.726 44.7183 260.395 47.9553H252.749C252.414 46.6903 251.707 45.6857 250.628 44.9415C249.549 44.1602 248.266 43.7695 246.778 43.7695C245.513 43.7695 244.34 44.1044 243.261 44.7741C242.182 45.4438 241.327 46.3926 240.694 47.6204C240.062 48.8483 239.745 50.3366 239.745 52.0853C239.745 53.7968 240.062 55.2851 240.694 56.5501C241.327 57.8152 242.182 58.7826 243.261 59.4523C244.34 60.0848 245.513 60.4011 246.778 60.4011C248.266 60.4011 249.549 60.0476 250.628 59.3407C251.707 58.5965 252.414 57.5547 252.749 56.2153H260.395C259.763 59.3407 258.219 61.8522 255.763 63.7497C253.345 65.6473 250.368 66.5961 246.833 66.5961Z" fill="#F44A22"/>
<path d="M270.768 58.057L267.475 53.648L281.26 38.2443H289.743L270.768 58.057ZM263.959 65.9263V25.7427H271.214V65.9263H263.959ZM282.767 65.9263L272.107 52.1411L276.516 47.7879L291.641 65.9263H282.767Z" fill="#F44A22"/>
<path d="M304.988 66.5961C302.16 66.5961 299.667 66.0008 297.509 64.8101C295.351 63.5823 293.658 61.908 292.43 59.7872C291.202 57.6292 290.588 55.1363 290.588 52.3085C290.588 49.4436 291.184 46.8949 292.374 44.6625C293.602 42.4301 295.295 40.6999 297.453 39.4721C299.611 38.2071 302.123 37.5745 304.988 37.5745C307.741 37.5745 310.159 38.1698 312.243 39.3605C314.327 40.5511 315.945 42.1696 317.099 44.216C318.289 46.2624 318.884 48.5878 318.884 51.1923C318.884 51.5644 318.884 51.9737 318.884 52.4202C318.884 52.8666 318.847 53.3317 318.773 53.8154H295.835V49.3506H311.573C311.462 47.5646 310.792 46.1322 309.564 45.0532C308.336 43.9741 306.829 43.4346 305.043 43.4346C303.704 43.4346 302.476 43.7323 301.36 44.3276C300.244 44.9229 299.351 45.8159 298.681 47.0065C298.048 48.1599 297.732 49.6482 297.732 51.4714V53.0341C297.732 54.5968 298.048 55.9548 298.681 57.1083C299.314 58.2617 300.169 59.1546 301.248 59.7872C302.327 60.3825 303.555 60.6801 304.932 60.6801C306.346 60.6801 307.536 60.3639 308.504 59.7314C309.471 59.0988 310.215 58.2617 310.736 57.2199H318.103C317.582 58.9686 316.708 60.5685 315.48 62.0196C314.289 63.4335 312.801 64.5497 311.015 65.3682C309.229 66.1868 307.22 66.5961 304.988 66.5961Z" fill="#F44A22"/>
<path d="M335.217 66.5961C332.612 66.5961 330.268 65.9635 328.185 64.6985C326.138 63.4335 324.52 61.7033 323.329 59.5081C322.139 57.2757 321.543 54.7828 321.543 52.0295C321.543 49.239 322.139 46.7647 323.329 44.6067C324.52 42.4115 326.138 40.6999 328.185 39.4721C330.268 38.2071 332.612 37.5745 335.217 37.5745C337.301 37.5745 339.105 37.9652 340.631 38.7466C342.193 39.5279 343.44 40.6069 344.37 41.9836V25.7427H351.625V65.9263H344.37V61.9638C343.514 63.1916 342.342 64.2706 340.854 65.2008C339.403 66.131 337.524 66.5961 335.217 66.5961ZM336.78 60.2895C338.305 60.2895 339.645 59.936 340.798 59.2291C341.989 58.5221 342.9 57.5547 343.533 56.3269C344.202 55.0619 344.537 53.648 344.537 52.0853C344.537 50.4854 344.202 49.0715 343.533 47.8437C342.9 46.6159 341.989 45.6485 340.798 44.9415C339.645 44.2346 338.305 43.8811 336.78 43.8811C335.291 43.8811 333.952 44.2346 332.761 44.9415C331.571 45.6485 330.64 46.6159 329.971 47.8437C329.301 49.0343 328.966 50.4296 328.966 52.0295C328.966 53.6294 329.301 55.0619 329.971 56.3269C330.64 57.5547 331.571 58.5221 332.761 59.2291C333.952 59.936 335.291 60.2895 336.78 60.2895Z" fill="#F44A22"/>
<path d="M373.905 65.9263V26.8589H399.243V32.719H381.16V43.4905H395.783V49.1831H381.16V65.9263H373.905Z" fill="#F44A22"/>
<path d="M410.473 66.5961C407.31 66.5961 404.799 65.5171 402.938 63.359C401.115 61.1638 400.204 57.9826 400.204 53.8154V38.2443H407.459V53.1457C407.459 55.527 407.905 57.3501 408.798 58.6151C409.729 59.843 411.068 60.4569 412.817 60.4569C414.789 60.4569 416.314 59.7686 417.393 58.3919C418.472 56.978 419.012 55.0247 419.012 52.5318V38.2443H426.267V65.9263H419.012V61.8522C418.193 63.3032 417.077 64.4567 415.663 65.3124C414.249 66.1682 412.519 66.5961 410.473 66.5961Z" fill="#F44A22"/>
<path d="M442.066 65.9263C440.206 65.9263 438.625 65.7217 437.322 65.3124C436.057 64.8659 435.109 64.0288 434.476 62.8009C433.844 61.5359 433.527 59.7314 433.527 57.3873V44.3276H428.783V38.2443H433.527V30.8214H440.783V38.2443H447.759V44.3276H440.783V56.4943C440.783 57.4245 440.876 58.1315 441.062 58.6151C441.248 59.0616 441.601 59.3593 442.122 59.5081C442.643 59.6569 443.35 59.7314 444.243 59.7314H447.592V65.9263H442.066Z" fill="#F44A22"/>
<path d="M460.343 66.5961C457.18 66.5961 454.669 65.5171 452.808 63.359C450.985 61.1638 450.073 57.9826 450.073 53.8154V38.2443H457.329V53.1457C457.329 55.527 457.775 57.3501 458.668 58.6151C459.598 59.843 460.938 60.4569 462.687 60.4569C464.659 60.4569 466.184 59.7686 467.263 58.3919C468.342 56.978 468.882 55.0247 468.882 52.5318V38.2443H476.137V65.9263H468.882V61.8522C468.063 63.3032 466.947 64.4567 465.533 65.3124C464.119 66.1682 462.389 66.5961 460.343 66.5961Z" fill="#F44A22"/>
<path d="M480.663 65.9263V38.2443H487.918V42.4859C488.625 41.072 489.536 39.9744 490.653 39.193C491.769 38.3745 493.052 37.9652 494.504 37.9652H498.02V44.4392H493.778C492.439 44.4392 491.322 44.7927 490.429 45.4996C489.574 46.2066 488.941 47.267 488.532 48.6808C488.123 50.0947 487.918 51.8435 487.918 53.927V65.9263H480.663Z" fill="#F44A22"/>
<path d="M512.533 66.5961C509.706 66.5961 507.213 66.0008 505.055 64.8101C502.897 63.5823 501.204 61.908 499.976 59.7872C498.748 57.6292 498.134 55.1363 498.134 52.3085C498.134 49.4436 498.73 46.8949 499.92 44.6625C501.148 42.4301 502.841 40.6999 504.999 39.4721C507.157 38.2071 509.669 37.5745 512.533 37.5745C515.287 37.5745 517.705 38.1698 519.789 39.3605C521.872 40.5511 523.491 42.1696 524.644 44.216C525.835 46.2624 526.43 48.5878 526.43 51.1923C526.43 51.5644 526.43 51.9737 526.43 52.4202C526.43 52.8666 526.393 53.3317 526.319 53.8154H503.38V49.3506H519.119C519.007 47.5646 518.338 46.1322 517.11 45.0532C515.882 43.9741 514.375 43.4346 512.589 43.4346C511.25 43.4346 510.022 43.7323 508.906 44.3276C507.79 44.9229 506.897 45.8159 506.227 47.0065C505.594 48.1599 505.278 49.6482 505.278 51.4714V53.0341C505.278 54.5968 505.594 55.9548 506.227 57.1083C506.859 58.2617 507.715 59.1546 508.794 59.7872C509.873 60.3825 511.101 60.6801 512.478 60.6801C513.892 60.6801 515.082 60.3639 516.049 59.7314C517.017 59.0988 517.761 58.2617 518.282 57.2199H525.649C525.128 58.9686 524.254 60.5685 523.026 62.0196C521.835 63.4335 520.347 64.5497 518.561 65.3682C516.775 66.1868 514.766 66.5961 512.533 66.5961Z" fill="#F44A22"/>
</svg>
