<svg width="1693" height="274" viewBox="0 0 1693 274" fill="none" xmlns="http://www.w3.org/2000/svg">
<path d="M292.355 176.133C286.244 176.133 280.922 175.206 276.39 173.352C271.927 171.498 267.841 168.58 264.133 164.597L275.772 152.855C278.313 155.533 281.025 157.593 283.909 159.035C286.793 160.408 290.055 161.095 293.694 161.095C296.784 161.095 299.153 160.58 300.801 159.55C302.518 158.451 303.376 156.975 303.376 155.121C303.376 153.404 302.758 151.997 301.522 150.898C300.286 149.731 298.638 148.735 296.578 147.911C294.587 147.018 292.355 146.194 289.883 145.439C287.48 144.615 285.042 143.654 282.57 142.555C280.167 141.388 277.935 139.98 275.875 138.332C273.884 136.684 272.27 134.624 271.034 132.152C269.798 129.68 269.18 126.624 269.18 122.985C269.18 118.316 270.279 114.333 272.476 111.037C274.742 107.741 277.866 105.2 281.849 103.415C285.832 101.63 290.467 100.737 295.754 100.737C301.041 100.737 305.917 101.63 310.38 103.415C314.843 105.2 318.517 107.672 321.401 110.831L309.659 122.47C307.462 120.273 305.23 118.625 302.964 117.526C300.698 116.427 298.226 115.878 295.548 115.878C293.007 115.878 291.016 116.324 289.574 117.217C288.132 118.11 287.411 119.38 287.411 121.028C287.411 122.676 288.029 124.015 289.265 125.045C290.501 126.075 292.115 127.002 294.106 127.826C296.166 128.581 298.398 129.371 300.801 130.195C303.273 131.019 305.711 131.98 308.114 133.079C310.517 134.178 312.715 135.585 314.706 137.302C316.766 139.019 318.414 141.182 319.65 143.791C320.886 146.4 321.504 149.559 321.504 153.267C321.504 160.546 318.929 166.176 313.779 170.159C308.698 174.142 301.556 176.133 292.355 176.133ZM330.846 175V101.973H349.283V175H330.846ZM375.548 175V101.973H393.985V175H375.548ZM341.352 145.336V129.886H382.243V145.336H341.352ZM442.525 176.339C436.894 176.339 431.71 175.378 426.972 173.455C422.234 171.532 418.08 168.854 414.509 165.421C411.007 161.988 408.26 157.971 406.269 153.37C404.278 148.701 403.282 143.688 403.282 138.332C403.282 132.976 404.243 128.032 406.166 123.5C408.157 118.899 410.904 114.882 414.406 111.449C417.908 108.016 422.028 105.372 426.766 103.518C431.504 101.595 436.688 100.634 442.319 100.634C447.95 100.634 453.134 101.595 457.872 103.518C462.61 105.372 466.73 108.016 470.232 111.449C473.734 114.882 476.446 118.899 478.369 123.5C480.36 128.101 481.356 133.079 481.356 138.435C481.356 143.791 480.36 148.769 478.369 153.37C476.446 157.971 473.734 162.022 470.232 165.524C466.73 168.957 462.61 171.635 457.872 173.558C453.203 175.412 448.087 176.339 442.525 176.339ZM442.319 159.859C446.439 159.859 450.01 158.966 453.031 157.181C456.052 155.396 458.387 152.889 460.035 149.662C461.683 146.435 462.507 142.658 462.507 138.332C462.507 135.173 462.026 132.289 461.065 129.68C460.172 127.071 458.833 124.839 457.048 122.985C455.263 121.062 453.134 119.586 450.662 118.556C448.19 117.526 445.409 117.011 442.319 117.011C438.199 117.011 434.628 117.904 431.607 119.689C428.586 121.406 426.251 123.878 424.603 127.105C422.955 130.332 422.131 134.075 422.131 138.332C422.131 141.628 422.577 144.615 423.47 147.293C424.431 149.902 425.805 152.168 427.59 154.091C429.375 155.945 431.504 157.387 433.976 158.417C436.448 159.378 439.229 159.859 442.319 159.859ZM527.115 176.133C521.553 176.133 516.403 175.206 511.665 173.352C506.927 171.429 502.773 168.786 499.202 165.421C495.7 161.988 492.954 157.971 490.962 153.37C489.04 148.769 488.078 143.791 488.078 138.435C488.078 133.01 489.04 128.032 490.962 123.5C492.954 118.899 495.7 114.917 499.202 111.552C502.773 108.187 506.893 105.544 511.562 103.621C516.3 101.698 521.416 100.737 526.909 100.737C532.677 100.737 537.862 101.664 542.462 103.518C547.063 105.303 551.114 107.81 554.616 111.037L542.256 123.397C540.54 121.474 538.411 119.964 535.87 118.865C533.33 117.766 530.343 117.217 526.909 117.217C523.957 117.217 521.244 117.698 518.772 118.659C516.369 119.62 514.275 121.062 512.489 122.985C510.704 124.839 509.296 127.071 508.266 129.68C507.305 132.289 506.824 135.208 506.824 138.435C506.824 141.662 507.305 144.581 508.266 147.19C509.296 149.799 510.704 152.065 512.489 153.988C514.275 155.842 516.369 157.284 518.772 158.314C521.244 159.275 523.957 159.756 526.909 159.756C530.343 159.756 533.364 159.241 535.973 158.211C538.583 157.112 540.814 155.567 542.668 153.576L555.028 165.936C551.458 169.163 547.406 171.67 542.874 173.455C538.411 175.24 533.158 176.133 527.115 176.133ZM607.289 175L579.685 136.89L606.156 101.973H628.61L598.431 139.877V133.388L629.743 175H607.289ZM562.999 175V101.973H581.436V175H562.999ZM635.421 175V101.973H653.858V175H635.421ZM650.047 175V159.447H689.599V175H650.047ZM650.047 145.336V130.195H685.891V145.336H650.047ZM650.047 117.526V101.973H688.981V117.526H650.047ZM712.46 175V159.138H729.97C734.09 159.138 737.66 158.348 740.682 156.769C743.772 155.19 746.141 152.855 747.789 149.765C749.437 146.606 750.261 142.795 750.261 138.332C750.261 133.937 749.402 130.229 747.686 127.208C746.038 124.118 743.703 121.783 740.682 120.204C737.66 118.625 734.09 117.835 729.97 117.835H711.636V101.973H730.073C735.703 101.973 740.888 102.866 745.626 104.651C750.364 106.368 754.484 108.84 757.986 112.067C761.488 115.294 764.2 119.14 766.123 123.603C768.114 128.066 769.11 133.01 769.11 138.435C769.11 143.928 768.114 148.907 766.123 153.37C764.2 157.833 761.488 161.679 757.986 164.906C754.484 168.133 750.364 170.64 745.626 172.425C740.956 174.142 735.841 175 730.279 175H712.46ZM699.997 175V101.973H718.434V175H699.997ZM797.364 175V101.973H815.801V175H797.364ZM811.99 147.705V132.152H848.143V147.705H811.99ZM811.99 117.526V101.973H849.791V117.526H811.99ZM889.401 176.133C883.221 176.133 877.762 174.863 873.024 172.322C868.355 169.713 864.715 166.108 862.106 161.507C859.497 156.906 858.192 151.688 858.192 145.851V101.973H876.526V147.19C876.526 149.799 877.075 152.065 878.174 153.988C879.341 155.842 880.886 157.284 882.809 158.314C884.8 159.275 886.998 159.756 889.401 159.756C891.873 159.756 894.036 159.275 895.89 158.314C897.744 157.284 899.22 155.842 900.319 153.988C901.418 152.134 901.967 149.902 901.967 147.293V101.973H920.507V145.954C920.507 151.791 919.202 157.009 916.593 161.61C913.984 166.142 910.344 169.713 905.675 172.322C901.074 174.863 895.65 176.133 889.401 176.133ZM949.765 175V102.488H968.202V175H949.765ZM927.414 117.835V101.973H990.553V117.835H927.414ZM1028.81 176.133C1022.63 176.133 1017.17 174.863 1012.44 172.322C1007.77 169.713 1004.13 166.108 1001.52 161.507C998.909 156.906 997.604 151.688 997.604 145.851V101.973H1015.94V147.19C1015.94 149.799 1016.49 152.065 1017.59 153.988C1018.75 155.842 1020.3 157.284 1022.22 158.314C1024.21 159.275 1026.41 159.756 1028.81 159.756C1031.29 159.756 1033.45 159.275 1035.3 158.314C1037.16 157.284 1038.63 155.842 1039.73 153.988C1040.83 152.134 1041.38 149.902 1041.38 147.293V101.973H1059.92V145.954C1059.92 151.791 1058.61 157.009 1056.01 161.61C1053.4 166.142 1049.76 169.713 1045.09 172.322C1040.49 174.863 1035.06 176.133 1028.81 176.133ZM1086.29 145.439V132.255H1100.19C1103.21 132.255 1105.51 131.534 1107.09 130.092C1108.74 128.581 1109.57 126.556 1109.57 124.015C1109.57 121.543 1108.74 119.552 1107.09 118.041C1105.51 116.462 1103.21 115.672 1100.19 115.672H1086.29V101.973H1102.77C1107.71 101.973 1112.04 102.9 1115.75 104.754C1119.52 106.608 1122.48 109.149 1124.6 112.376C1126.73 115.603 1127.8 119.38 1127.8 123.706C1127.8 128.032 1126.7 131.843 1124.5 135.139C1122.37 138.366 1119.39 140.907 1115.54 142.761C1111.69 144.546 1107.2 145.439 1102.05 145.439H1086.29ZM1071.66 175V101.973H1090.1V175H1071.66ZM1111.21 175L1090 143.688L1106.58 139.671L1132.53 175H1111.21ZM1138.55 175V101.973H1156.99V175H1138.55ZM1153.18 175V159.447H1192.73V175H1153.18ZM1153.18 145.336V130.195H1189.02V145.336H1153.18ZM1153.18 117.526V101.973H1192.11V117.526H1153.18ZM1245 176.133C1238.89 176.133 1233.57 175.206 1229.04 173.352C1224.58 171.498 1220.49 168.58 1216.78 164.597L1228.42 152.855C1230.96 155.533 1233.67 157.593 1236.56 159.035C1239.44 160.408 1242.7 161.095 1246.34 161.095C1249.43 161.095 1251.8 160.58 1253.45 159.55C1255.17 158.451 1256.03 156.975 1256.03 155.121C1256.03 153.404 1255.41 151.997 1254.17 150.898C1252.94 149.731 1251.29 148.735 1249.23 147.911C1247.24 147.018 1245 146.194 1242.53 145.439C1240.13 144.615 1237.69 143.654 1235.22 142.555C1232.82 141.388 1230.58 139.98 1228.52 138.332C1226.53 136.684 1224.92 134.624 1223.68 132.152C1222.45 129.68 1221.83 126.624 1221.83 122.985C1221.83 118.316 1222.93 114.333 1225.13 111.037C1227.39 107.741 1230.52 105.2 1234.5 103.415C1238.48 101.63 1243.12 100.737 1248.4 100.737C1253.69 100.737 1258.57 101.63 1263.03 103.415C1267.49 105.2 1271.17 107.672 1274.05 110.831L1262.31 122.47C1260.11 120.273 1257.88 118.625 1255.61 117.526C1253.35 116.427 1250.88 115.878 1248.2 115.878C1245.66 115.878 1243.67 116.324 1242.22 117.217C1240.78 118.11 1240.06 119.38 1240.06 121.028C1240.06 122.676 1240.68 124.015 1241.91 125.045C1243.15 126.075 1244.76 127.002 1246.76 127.826C1248.82 128.581 1251.05 129.371 1253.45 130.195C1255.92 131.019 1258.36 131.98 1260.76 133.079C1263.17 134.178 1265.36 135.585 1267.36 137.302C1269.42 139.019 1271.06 141.182 1272.3 143.791C1273.54 146.4 1274.15 149.559 1274.15 153.267C1274.15 160.546 1271.58 166.176 1266.43 170.159C1261.35 174.142 1254.21 176.133 1245 176.133ZM1298.7 175V102.488H1317.13V175H1298.7ZM1276.35 117.835V101.973H1339.49V117.835H1276.35ZM1377.75 176.133C1371.57 176.133 1366.11 174.863 1361.37 172.322C1356.7 169.713 1353.06 166.108 1350.45 161.507C1347.84 156.906 1346.54 151.688 1346.54 145.851V101.973H1364.87V147.19C1364.87 149.799 1365.42 152.065 1366.52 153.988C1367.69 155.842 1369.23 157.284 1371.15 158.314C1373.14 159.275 1375.34 159.756 1377.75 159.756C1380.22 159.756 1382.38 159.275 1384.23 158.314C1386.09 157.284 1387.56 155.842 1388.66 153.988C1389.76 152.134 1390.31 149.902 1390.31 147.293V101.973H1408.85V145.954C1408.85 151.791 1407.55 157.009 1404.94 161.61C1402.33 166.142 1398.69 169.713 1394.02 172.322C1389.42 174.863 1383.99 176.133 1377.75 176.133ZM1433.06 175V159.138H1450.57C1454.69 159.138 1458.26 158.348 1461.28 156.769C1464.37 155.19 1466.74 152.855 1468.39 149.765C1470.03 146.606 1470.86 142.795 1470.86 138.332C1470.86 133.937 1470 130.229 1468.28 127.208C1466.64 124.118 1464.3 121.783 1461.28 120.204C1458.26 118.625 1454.69 117.835 1450.57 117.835H1432.23V101.973H1450.67C1456.3 101.973 1461.49 102.866 1466.22 104.651C1470.96 106.368 1475.08 108.84 1478.58 112.067C1482.09 115.294 1484.8 119.14 1486.72 123.603C1488.71 128.066 1489.71 133.01 1489.71 138.435C1489.71 143.928 1488.71 148.907 1486.72 153.37C1484.8 157.833 1482.09 161.679 1478.58 164.906C1475.08 168.133 1470.96 170.64 1466.22 172.425C1461.55 174.142 1456.44 175 1450.88 175H1433.06ZM1420.59 175V101.973H1439.03V175H1420.59ZM1498.95 175V101.973H1517.39V175H1498.95ZM1565.87 176.339C1560.24 176.339 1555.05 175.378 1550.32 173.455C1545.58 171.532 1541.42 168.854 1537.85 165.421C1534.35 161.988 1531.6 157.971 1529.61 153.37C1527.62 148.701 1526.63 143.688 1526.63 138.332C1526.63 132.976 1527.59 128.032 1529.51 123.5C1531.5 118.899 1534.25 114.882 1537.75 111.449C1541.25 108.016 1545.37 105.372 1550.11 103.518C1554.85 101.595 1560.03 100.634 1565.66 100.634C1571.29 100.634 1576.48 101.595 1581.22 103.518C1585.95 105.372 1590.07 108.016 1593.58 111.449C1597.08 114.882 1599.79 118.899 1601.71 123.5C1603.7 128.101 1604.7 133.079 1604.7 138.435C1604.7 143.791 1603.7 148.769 1601.71 153.37C1599.79 157.971 1597.08 162.022 1593.58 165.524C1590.07 168.957 1585.95 171.635 1581.22 173.558C1576.55 175.412 1571.43 176.339 1565.87 176.339ZM1565.66 159.859C1569.78 159.859 1573.35 158.966 1576.37 157.181C1579.4 155.396 1581.73 152.889 1583.38 149.662C1585.03 146.435 1585.85 142.658 1585.85 138.332C1585.85 135.173 1585.37 132.289 1584.41 129.68C1583.52 127.071 1582.18 124.839 1580.39 122.985C1578.61 121.062 1576.48 119.586 1574.01 118.556C1571.53 117.526 1568.75 117.011 1565.66 117.011C1561.54 117.011 1557.97 117.904 1554.95 119.689C1551.93 121.406 1549.59 123.878 1547.95 127.105C1546.3 130.332 1545.47 134.075 1545.47 138.332C1545.47 141.628 1545.92 144.615 1546.81 147.293C1547.78 149.902 1549.15 152.168 1550.93 154.091C1552.72 155.945 1554.85 157.387 1557.32 158.417C1559.79 159.378 1562.57 159.859 1565.66 159.859ZM1635.18 176.133C1629.07 176.133 1623.74 175.206 1619.21 173.352C1614.75 171.498 1610.66 168.58 1606.96 164.597L1618.59 152.855C1621.13 155.533 1623.85 157.593 1626.73 159.035C1629.62 160.408 1632.88 161.095 1636.52 161.095C1639.61 161.095 1641.98 160.58 1643.62 159.55C1645.34 158.451 1646.2 156.975 1646.2 155.121C1646.2 153.404 1645.58 151.997 1644.34 150.898C1643.11 149.731 1641.46 148.735 1639.4 147.911C1637.41 147.018 1635.18 146.194 1632.71 145.439C1630.3 144.615 1627.86 143.654 1625.39 142.555C1622.99 141.388 1620.76 139.98 1618.7 138.332C1616.71 136.684 1615.09 134.624 1613.86 132.152C1612.62 129.68 1612 126.624 1612 122.985C1612 118.316 1613.1 114.333 1615.3 111.037C1617.56 107.741 1620.69 105.2 1624.67 103.415C1628.65 101.63 1633.29 100.737 1638.58 100.737C1643.86 100.737 1648.74 101.63 1653.2 103.415C1657.67 105.2 1661.34 107.672 1664.22 110.831L1652.48 122.47C1650.28 120.273 1648.05 118.625 1645.79 117.526C1643.52 116.427 1641.05 115.878 1638.37 115.878C1635.83 115.878 1633.84 116.324 1632.4 117.217C1630.95 118.11 1630.23 119.38 1630.23 121.028C1630.23 122.676 1630.85 124.015 1632.09 125.045C1633.32 126.075 1634.94 127.002 1636.93 127.826C1638.99 128.581 1641.22 129.371 1643.62 130.195C1646.1 131.019 1648.53 131.98 1650.94 133.079C1653.34 134.178 1655.54 135.585 1657.53 137.302C1659.59 139.019 1661.24 141.182 1662.47 143.791C1663.71 146.4 1664.33 149.559 1664.33 153.267C1664.33 160.546 1661.75 166.176 1656.6 170.159C1651.52 174.142 1644.38 176.133 1635.18 176.133Z" fill="black"/>
<path d="M131.776 36.3862C187.321 36.3865 232.389 81.5591 232.389 137.331C232.389 193.102 187.321 238.275 131.776 238.275C76.2296 238.275 31.1613 193.102 31.1613 137.331C31.1613 81.5589 76.2296 36.3862 131.776 36.3862Z" stroke="black" stroke-width="15"/>
<path d="M23 164.111L158.556 15V109.889H239.889L104.333 259V164.111H23Z" fill="black" stroke="black" stroke-width="14.67" stroke-linecap="round" stroke-linejoin="round"/>
</svg>
