<svg width="4000" height="400" viewBox="0 0 4000 400" fill="none" xmlns="http://www.w3.org/2000/svg">
<path d="M421.772 295.882C406.226 295.882 392.69 293.524 381.162 288.808C369.808 284.092 359.416 276.669 349.984 266.538L379.59 236.67C386.052 243.482 392.952 248.722 400.288 252.39C407.624 255.883 415.92 257.63 425.178 257.63C433.038 257.63 439.064 256.32 443.256 253.7C447.622 250.905 449.806 247.15 449.806 242.434C449.806 238.067 448.234 234.487 445.09 231.692C441.946 228.723 437.754 226.19 432.514 224.094C427.448 221.823 421.772 219.727 415.484 217.806C409.37 215.71 403.17 213.265 396.882 210.47C390.768 207.501 385.092 203.92 379.852 199.728C374.786 195.536 370.682 190.296 367.538 184.008C364.394 177.72 362.822 169.947 362.822 160.69C362.822 148.813 365.616 138.682 371.206 130.298C376.97 121.914 384.917 115.451 395.048 110.91C405.178 106.369 416.968 104.098 430.418 104.098C443.867 104.098 456.268 106.369 467.622 110.91C478.975 115.451 488.32 121.739 495.656 129.774L465.788 159.38C460.198 153.791 454.522 149.599 448.758 146.804C442.994 144.009 436.706 142.612 429.894 142.612C423.431 142.612 418.366 143.747 414.698 146.018C411.03 148.289 409.196 151.52 409.196 155.712C409.196 159.904 410.768 163.31 413.912 165.93C417.056 168.55 421.16 170.908 426.226 173.004C431.466 174.925 437.142 176.934 443.256 179.03C449.544 181.126 455.744 183.571 461.858 186.366C467.971 189.161 473.56 192.741 478.626 197.108C483.866 201.475 488.058 206.977 491.202 213.614C494.346 220.251 495.918 228.286 495.918 237.718C495.918 256.233 489.368 270.555 476.268 280.686C463.342 290.817 445.177 295.882 421.772 295.882ZM519.682 293V107.242H566.58V293H519.682ZM633.39 293V107.242H680.288V293H633.39ZM546.406 217.544V178.244H650.42V217.544H546.406ZM803.757 296.406C789.435 296.406 776.247 293.961 764.195 289.07C752.143 284.179 741.576 277.367 732.493 268.634C723.585 259.901 716.599 249.683 711.533 237.98C706.468 226.103 703.935 213.352 703.935 199.728C703.935 186.104 706.381 173.528 711.271 162C716.337 150.297 723.323 140.079 732.231 131.346C741.139 122.613 751.619 115.888 763.671 111.172C775.723 106.281 788.911 103.836 803.233 103.836C817.556 103.836 830.743 106.281 842.795 111.172C854.847 115.888 865.327 122.613 874.235 131.346C883.143 140.079 890.043 150.297 894.933 162C899.999 173.703 902.531 186.366 902.531 199.99C902.531 213.614 899.999 226.277 894.933 237.98C890.043 249.683 883.143 259.988 874.235 268.896C865.327 277.629 854.847 284.441 842.795 289.332C830.918 294.048 817.905 296.406 803.757 296.406ZM803.233 254.486C813.713 254.486 822.796 252.215 830.481 247.674C838.167 243.133 844.105 236.757 848.297 228.548C852.489 220.339 854.585 210.732 854.585 199.728C854.585 191.693 853.363 184.357 850.917 177.72C848.647 171.083 845.241 165.406 840.699 160.69C836.158 155.799 830.743 152.044 824.455 149.424C818.167 146.804 811.093 145.494 803.233 145.494C792.753 145.494 783.671 147.765 775.985 152.306C768.3 156.673 762.361 162.961 758.169 171.17C753.977 179.379 751.881 188.899 751.881 199.728C751.881 208.112 753.017 215.71 755.287 222.522C757.733 229.159 761.226 234.923 765.767 239.814C770.309 244.53 775.723 248.198 782.011 250.818C788.299 253.263 795.373 254.486 803.233 254.486ZM1018.93 295.882C1004.78 295.882 991.681 293.524 979.629 288.808C967.577 283.917 957.01 277.193 947.927 268.634C939.019 259.901 932.032 249.683 926.967 237.98C922.076 226.277 919.631 213.614 919.631 199.99C919.631 186.191 922.076 173.528 926.967 162C932.032 150.297 939.019 140.167 947.927 131.608C957.01 123.049 967.49 116.325 979.367 111.434C991.419 106.543 1004.43 104.098 1018.4 104.098C1033.08 104.098 1046.26 106.456 1057.97 111.172C1069.67 115.713 1079.97 122.089 1088.88 130.298L1057.44 161.738C1053.08 156.847 1047.66 153.005 1041.2 150.21C1034.74 147.415 1027.14 146.018 1018.4 146.018C1010.89 146.018 1003.99 147.241 997.707 149.686C991.594 152.131 986.266 155.799 981.725 160.69C977.184 165.406 973.603 171.083 970.983 177.72C968.538 184.357 967.315 191.781 967.315 199.99C967.315 208.199 968.538 215.623 970.983 222.26C973.603 228.897 977.184 234.661 981.725 239.552C986.266 244.268 991.594 247.936 997.707 250.556C1003.99 253.001 1010.89 254.224 1018.4 254.224C1027.14 254.224 1034.82 252.914 1041.46 250.294C1048.1 247.499 1053.77 243.569 1058.49 238.504L1089.93 269.944C1080.85 278.153 1070.54 284.529 1059.01 289.07C1047.66 293.611 1034.3 295.882 1018.93 295.882ZM1222.87 293L1152.65 196.06L1219.98 107.242H1277.1L1200.33 203.658V187.152L1279.98 293H1222.87ZM1110.21 293V107.242H1157.1V293H1110.21ZM1294.42 293V107.242H1341.32V293H1294.42ZM1331.63 293V253.438H1432.24V293H1331.63ZM1331.63 217.544V179.03H1422.8V217.544H1331.63ZM1331.63 146.804V107.242H1430.66V146.804H1331.63ZM1490.39 293V252.652H1534.93C1545.41 252.652 1554.49 250.643 1562.18 246.626C1570.04 242.609 1576.06 236.67 1580.25 228.81C1584.45 220.775 1586.54 211.081 1586.54 199.728C1586.54 188.549 1584.36 179.117 1579.99 171.432C1575.8 163.572 1569.86 157.633 1562.18 153.616C1554.49 149.599 1545.41 147.59 1534.93 147.59H1488.29V107.242H1535.19C1549.51 107.242 1562.7 109.513 1574.75 114.054C1586.8 118.421 1597.28 124.709 1606.19 132.918C1615.1 141.127 1622 150.909 1626.89 162.262C1631.96 173.615 1634.49 186.191 1634.49 199.99C1634.49 213.963 1631.96 226.627 1626.89 237.98C1622 249.333 1615.1 259.115 1606.19 267.324C1597.28 275.533 1586.8 281.909 1574.75 286.45C1562.87 290.817 1549.86 293 1535.71 293H1490.39ZM1458.69 293V107.242H1505.58V293H1458.69ZM1706.36 293V107.242H1753.26V293H1706.36ZM1743.56 223.57V184.008H1835.52V223.57H1743.56ZM1743.56 146.804V107.242H1839.72V146.804H1743.56ZM1940.47 295.882C1924.75 295.882 1910.86 292.651 1898.81 286.188C1886.94 279.551 1877.68 270.381 1871.04 258.678C1864.4 246.975 1861.08 233.701 1861.08 218.854V107.242H1907.72V222.26C1907.72 228.897 1909.12 234.661 1911.91 239.552C1914.88 244.268 1918.81 247.936 1923.7 250.556C1928.77 253.001 1934.36 254.224 1940.47 254.224C1946.76 254.224 1952.26 253.001 1956.98 250.556C1961.69 247.936 1965.45 244.268 1968.24 239.552C1971.04 234.836 1972.43 229.159 1972.43 222.522V107.242H2019.59V219.116C2019.59 233.963 2016.28 247.237 2009.64 258.94C2003 270.468 1993.74 279.551 1981.87 286.188C1970.16 292.651 1956.37 295.882 1940.47 295.882ZM2094.02 293V108.552H2140.92V293H2094.02ZM2037.16 147.59V107.242H2197.77V147.59H2037.16ZM2295.09 295.882C2279.37 295.882 2265.49 292.651 2253.43 286.188C2241.56 279.551 2232.3 270.381 2225.66 258.678C2219.02 246.975 2215.71 233.701 2215.71 218.854V107.242H2262.34V222.26C2262.34 228.897 2263.74 234.661 2266.53 239.552C2269.5 244.268 2273.43 247.936 2278.32 250.556C2283.39 253.001 2288.98 254.224 2295.09 254.224C2301.38 254.224 2306.88 253.001 2311.6 250.556C2316.31 247.936 2320.07 244.268 2322.86 239.552C2325.66 234.836 2327.06 229.159 2327.06 222.522V107.242H2374.22V219.116C2374.22 233.963 2370.9 247.237 2364.26 258.94C2357.62 270.468 2348.37 279.551 2336.49 286.188C2324.79 292.651 2310.99 295.882 2295.09 295.882ZM2441.29 217.806V184.27H2476.66C2484.35 184.27 2490.2 182.436 2494.21 178.768C2498.41 174.925 2500.5 169.773 2500.5 163.31C2500.5 157.022 2498.41 151.957 2494.21 148.114C2490.2 144.097 2484.35 142.088 2476.66 142.088H2441.29V107.242H2483.21C2495.79 107.242 2506.79 109.6 2516.22 114.316C2525.83 119.032 2533.34 125.495 2538.75 133.704C2544.17 141.913 2546.88 151.52 2546.88 162.524C2546.88 173.528 2544.08 183.222 2538.49 191.606C2533.08 199.815 2525.48 206.278 2515.7 210.994C2505.92 215.535 2494.48 217.806 2481.38 217.806H2441.29ZM2404.09 293V107.242H2450.98V293H2404.09ZM2504.69 293L2450.72 213.352L2492.9 203.134L2558.93 293H2504.69ZM2574.23 293V107.242H2621.13V293H2574.23ZM2611.44 293V253.438H2712.04V293H2611.44ZM2611.44 217.544V179.03H2702.61V217.544H2611.44ZM2611.44 146.804V107.242H2710.47V146.804H2611.44ZM2845.02 295.882C2829.47 295.882 2815.93 293.524 2804.41 288.808C2793.05 284.092 2782.66 276.669 2773.23 266.538L2802.83 236.67C2809.3 243.482 2816.2 248.722 2823.53 252.39C2830.87 255.883 2839.16 257.63 2848.42 257.63C2856.28 257.63 2862.31 256.32 2866.5 253.7C2870.87 250.905 2873.05 247.15 2873.05 242.434C2873.05 238.067 2871.48 234.487 2868.33 231.692C2865.19 228.723 2861 226.19 2855.76 224.094C2850.69 221.823 2845.02 219.727 2838.73 217.806C2832.61 215.71 2826.41 213.265 2820.13 210.47C2814.01 207.501 2808.34 203.92 2803.1 199.728C2798.03 195.536 2793.93 190.296 2790.78 184.008C2787.64 177.72 2786.07 169.947 2786.07 160.69C2786.07 148.813 2788.86 138.682 2794.45 130.298C2800.21 121.914 2808.16 115.451 2818.29 110.91C2828.42 106.369 2840.21 104.098 2853.66 104.098C2867.11 104.098 2879.51 106.369 2890.87 110.91C2902.22 115.451 2911.56 121.739 2918.9 129.774L2889.03 159.38C2883.44 153.791 2877.77 149.599 2872 146.804C2866.24 144.009 2859.95 142.612 2853.14 142.612C2846.68 142.612 2841.61 143.747 2837.94 146.018C2834.27 148.289 2832.44 151.52 2832.44 155.712C2832.44 159.904 2834.01 163.31 2837.16 165.93C2840.3 168.55 2844.4 170.908 2849.47 173.004C2854.71 174.925 2860.39 176.934 2866.5 179.03C2872.79 181.126 2878.99 183.571 2885.1 186.366C2891.22 189.161 2896.8 192.741 2901.87 197.108C2907.11 201.475 2911.3 206.977 2914.45 213.614C2917.59 220.251 2919.16 228.286 2919.16 237.718C2919.16 256.233 2912.61 270.555 2899.51 280.686C2886.59 290.817 2868.42 295.882 2845.02 295.882ZM2981.59 293V108.552H3028.49V293H2981.59ZM2924.74 147.59V107.242H3085.35V147.59H2924.74ZM3182.67 295.882C3166.95 295.882 3153.06 292.651 3141.01 286.188C3129.13 279.551 3119.88 270.381 3113.24 258.678C3106.6 246.975 3103.28 233.701 3103.28 218.854V107.242H3149.92V222.26C3149.92 228.897 3151.32 234.661 3154.11 239.552C3157.08 244.268 3161.01 247.936 3165.9 250.556C3170.97 253.001 3176.55 254.224 3182.67 254.224C3188.96 254.224 3194.46 253.001 3199.17 250.556C3203.89 247.936 3207.65 244.268 3210.44 239.552C3213.23 234.836 3214.63 229.159 3214.63 222.522V107.242H3261.79V219.116C3261.79 233.963 3258.47 247.237 3251.84 258.94C3245.2 270.468 3235.94 279.551 3224.06 286.188C3212.36 292.651 3198.56 295.882 3182.67 295.882ZM3323.36 293V252.652H3367.9C3378.38 252.652 3387.47 250.643 3395.15 246.626C3403.01 242.609 3409.04 236.67 3413.23 228.81C3417.42 220.775 3419.52 211.081 3419.52 199.728C3419.52 188.549 3417.33 179.117 3412.97 171.432C3408.78 163.572 3402.84 157.633 3395.15 153.616C3387.47 149.599 3378.38 147.59 3367.9 147.59H3321.27V107.242H3368.17C3382.49 107.242 3395.68 109.513 3407.73 114.054C3419.78 118.421 3430.26 124.709 3439.17 132.918C3448.08 141.127 3454.98 150.909 3459.87 162.262C3464.93 173.615 3467.46 186.191 3467.46 199.99C3467.46 213.963 3464.93 226.627 3459.87 237.98C3454.98 249.333 3448.08 259.115 3439.17 267.324C3430.26 275.533 3419.78 281.909 3407.73 286.45C3395.85 290.817 3382.84 293 3368.69 293H3323.36ZM3291.66 293V107.242H3338.56V293H3291.66ZM3490.98 293V107.242H3537.87V293H3490.98ZM3661.19 296.406C3646.87 296.406 3633.68 293.961 3621.63 289.07C3609.58 284.179 3599.01 277.367 3589.93 268.634C3581.02 259.901 3574.04 249.683 3568.97 237.98C3563.91 226.103 3561.37 213.352 3561.37 199.728C3561.37 186.104 3563.82 173.528 3568.71 162C3573.77 150.297 3580.76 140.079 3589.67 131.346C3598.58 122.613 3609.06 115.888 3621.11 111.172C3633.16 106.281 3646.35 103.836 3660.67 103.836C3674.99 103.836 3688.18 106.281 3700.23 111.172C3712.28 115.888 3722.76 122.613 3731.67 131.346C3740.58 140.079 3747.48 150.297 3752.37 162C3757.44 173.703 3759.97 186.366 3759.97 199.99C3759.97 213.614 3757.44 226.277 3752.37 237.98C3747.48 249.683 3740.58 259.988 3731.67 268.896C3722.76 277.629 3712.28 284.441 3700.23 289.332C3688.36 294.048 3675.34 296.406 3661.19 296.406ZM3660.67 254.486C3671.15 254.486 3680.23 252.215 3687.92 247.674C3695.6 243.133 3701.54 236.757 3705.73 228.548C3709.93 220.339 3712.02 210.732 3712.02 199.728C3712.02 191.693 3710.8 184.357 3708.35 177.72C3706.08 171.083 3702.68 165.406 3698.14 160.69C3693.6 155.799 3688.18 152.044 3681.89 149.424C3675.6 146.804 3668.53 145.494 3660.67 145.494C3650.19 145.494 3641.11 147.765 3633.42 152.306C3625.74 156.673 3619.8 162.961 3615.61 171.17C3611.41 179.379 3609.32 188.899 3609.32 199.728C3609.32 208.112 3610.45 215.71 3612.72 222.522C3615.17 229.159 3618.66 234.923 3623.2 239.814C3627.75 244.53 3633.16 248.198 3639.45 250.818C3645.74 253.263 3652.81 254.486 3660.67 254.486ZM3837.49 295.882C3821.95 295.882 3808.41 293.524 3796.88 288.808C3785.53 284.092 3775.14 276.669 3765.71 266.538L3795.31 236.67C3801.77 243.482 3808.67 248.722 3816.01 252.39C3823.35 255.883 3831.64 257.63 3840.9 257.63C3848.76 257.63 3854.79 256.32 3858.98 253.7C3863.34 250.905 3865.53 247.15 3865.53 242.434C3865.53 238.067 3863.96 234.487 3860.81 231.692C3857.67 228.723 3853.48 226.19 3848.24 224.094C3843.17 221.823 3837.49 219.727 3831.21 217.806C3825.09 215.71 3818.89 213.265 3812.6 210.47C3806.49 207.501 3800.81 203.92 3795.57 199.728C3790.51 195.536 3786.4 190.296 3783.26 184.008C3780.12 177.72 3778.54 169.947 3778.54 160.69C3778.54 148.813 3781.34 138.682 3786.93 130.298C3792.69 121.914 3800.64 115.451 3810.77 110.91C3820.9 106.369 3832.69 104.098 3846.14 104.098C3859.59 104.098 3871.99 106.369 3883.34 110.91C3894.7 115.451 3904.04 121.739 3911.38 129.774L3881.51 159.38C3875.92 153.791 3870.24 149.599 3864.48 146.804C3858.72 144.009 3852.43 142.612 3845.62 142.612C3839.15 142.612 3834.09 143.747 3830.42 146.018C3826.75 148.289 3824.92 151.52 3824.92 155.712C3824.92 159.904 3826.49 163.31 3829.63 165.93C3832.78 168.55 3836.88 170.908 3841.95 173.004C3847.19 174.925 3852.86 176.934 3858.98 179.03C3865.27 181.126 3871.47 183.571 3877.58 186.366C3883.69 189.161 3889.28 192.741 3894.35 197.108C3899.59 201.475 3903.78 206.977 3906.92 213.614C3910.07 220.251 3911.64 228.286 3911.64 237.718C3911.64 256.233 3905.09 270.555 3891.99 280.686C3879.06 290.817 3860.9 295.882 3837.49 295.882Z" fill="black"/>
<circle cx="184.5" cy="199.5" r="115" stroke="black" stroke-width="15"/>
<path d="M61 230.056L214.75 62V168.944H307L153.25 337V230.056H61Z" fill="black" stroke="black" stroke-width="17.67" stroke-linecap="round" stroke-linejoin="round"/>
</svg>
