<svg width="2779" height="450" viewBox="0 0 2779 450" fill="none" xmlns="http://www.w3.org/2000/svg">
<path d="M478.595 288.837C468.686 288.837 460.058 287.334 452.71 284.328C445.473 281.322 438.849 276.59 432.837 270.133L451.708 251.095C455.827 255.437 460.225 258.777 464.901 261.115C469.577 263.342 474.865 264.455 480.766 264.455C485.776 264.455 489.617 263.62 492.289 261.95C495.072 260.169 496.464 257.775 496.464 254.769C496.464 251.986 495.462 249.703 493.458 247.922C491.454 246.029 488.782 244.415 485.442 243.079C482.213 241.632 478.595 240.296 474.587 239.071C470.69 237.735 466.738 236.176 462.73 234.395C458.833 232.502 455.215 230.22 451.875 227.548C448.646 224.876 446.03 221.536 444.026 217.528C442.022 213.52 441.02 208.566 441.02 202.665C441.02 195.094 442.801 188.637 446.364 183.293C450.038 177.949 455.104 173.83 461.561 170.935C468.018 168.04 475.533 166.593 484.106 166.593C492.679 166.593 500.583 168.04 507.82 170.935C515.057 173.83 521.013 177.838 525.689 182.959L506.651 201.83C503.088 198.267 499.47 195.595 495.796 193.814C492.122 192.033 488.114 191.142 483.772 191.142C479.653 191.142 476.424 191.866 474.086 193.313C471.748 194.76 470.579 196.82 470.579 199.492C470.579 202.164 471.581 204.335 473.585 206.005C475.589 207.675 478.205 209.178 481.434 210.514C484.774 211.739 488.392 213.019 492.289 214.355C496.297 215.691 500.249 217.25 504.146 219.031C508.043 220.812 511.605 223.095 514.834 225.878C518.174 228.661 520.846 232.168 522.85 236.399C524.854 240.63 525.856 245.751 525.856 251.763C525.856 263.564 521.681 272.694 513.331 279.151C505.092 285.608 493.514 288.837 478.595 288.837ZM541.003 287V168.597H570.896V287H541.003ZM613.481 287V168.597H643.374V287H613.481ZM558.037 238.904V213.854H624.336V238.904H558.037ZM722.074 289.171C712.945 289.171 704.539 287.612 696.857 284.495C689.175 281.378 682.44 277.036 676.65 271.469C670.972 265.902 666.519 259.389 663.29 251.93C660.062 244.359 658.447 236.232 658.447 227.548C658.447 218.864 660.006 210.848 663.123 203.5C666.352 196.041 670.805 189.528 676.483 183.961C682.161 178.394 688.841 174.108 696.523 171.102C704.205 167.985 712.611 166.426 721.74 166.426C730.87 166.426 739.275 167.985 746.957 171.102C754.639 174.108 761.319 178.394 766.997 183.961C772.675 189.528 777.073 196.041 780.19 203.5C783.419 210.959 785.033 219.031 785.033 227.715C785.033 236.399 783.419 244.471 780.19 251.93C777.073 259.389 772.675 265.958 766.997 271.636C761.319 277.203 754.639 281.545 746.957 284.662C739.387 287.668 731.092 289.171 722.074 289.171ZM721.74 262.451C728.42 262.451 734.21 261.004 739.108 258.109C744.007 255.214 747.792 251.151 750.464 245.918C753.136 240.685 754.472 234.562 754.472 227.548C754.472 222.427 753.693 217.751 752.134 213.52C750.687 209.289 748.516 205.671 745.621 202.665C742.727 199.548 739.275 197.154 735.267 195.484C731.259 193.814 726.75 192.979 721.74 192.979C715.06 192.979 709.271 194.426 704.372 197.321C699.474 200.104 695.688 204.112 693.016 209.345C690.344 214.578 689.008 220.645 689.008 227.548C689.008 232.892 689.732 237.735 691.179 242.077C692.738 246.308 694.965 249.982 697.859 253.099C700.754 256.105 704.205 258.443 708.213 260.113C712.221 261.672 716.73 262.451 721.74 262.451ZM859.226 288.837C850.208 288.837 841.858 287.334 834.176 284.328C826.494 281.211 819.758 276.924 813.969 271.469C808.291 265.902 803.838 259.389 800.609 251.93C797.492 244.471 795.933 236.399 795.933 227.715C795.933 218.92 797.492 210.848 800.609 203.5C803.838 196.041 808.291 189.583 813.969 184.128C819.758 178.673 826.438 174.386 834.009 171.269C841.691 168.152 849.985 166.593 858.892 166.593C868.244 166.593 876.65 168.096 884.109 171.102C891.568 173.997 898.137 178.06 903.815 183.293L883.775 203.333C880.992 200.216 877.54 197.766 873.421 195.985C869.302 194.204 864.459 193.313 858.892 193.313C854.105 193.313 849.707 194.092 845.699 195.651C841.802 197.21 838.407 199.548 835.512 202.665C832.617 205.671 830.335 209.289 828.665 213.52C827.106 217.751 826.327 222.482 826.327 227.715C826.327 232.948 827.106 237.679 828.665 241.91C830.335 246.141 832.617 249.815 835.512 252.932C838.407 255.938 841.802 258.276 845.699 259.946C849.707 261.505 854.105 262.284 858.892 262.284C864.459 262.284 869.357 261.449 873.588 259.779C877.819 257.998 881.437 255.493 884.443 252.264L904.483 272.304C898.694 277.537 892.125 281.6 884.777 284.495C877.54 287.39 869.023 288.837 859.226 288.837ZM989.216 287L944.46 225.21L987.379 168.597H1023.78L974.854 230.053V219.532L1025.62 287H989.216ZM917.406 287V168.597H947.299V287H917.406ZM1034.83 287V168.597H1064.72V287H1034.83ZM1058.54 287V261.783H1122.67V287H1058.54ZM1058.54 238.904V214.355H1116.66V238.904H1058.54ZM1058.54 193.814V168.597H1121.67V193.814H1058.54ZM1159.74 287V261.282H1188.13C1194.81 261.282 1200.6 260.002 1205.49 257.441C1210.5 254.88 1214.34 251.095 1217.02 246.085C1219.69 240.964 1221.02 234.785 1221.02 227.548C1221.02 220.423 1219.63 214.411 1216.85 209.512C1214.18 204.502 1210.39 200.717 1205.49 198.156C1200.6 195.595 1194.81 194.315 1188.13 194.315H1158.4V168.597H1188.29C1197.42 168.597 1205.83 170.044 1213.51 172.939C1221.19 175.722 1227.87 179.73 1233.55 184.963C1239.23 190.196 1243.63 196.43 1246.74 203.667C1249.97 210.904 1251.59 218.92 1251.59 227.715C1251.59 236.622 1249.97 244.693 1246.74 251.93C1243.63 259.167 1239.23 265.401 1233.55 270.634C1227.87 275.867 1221.19 279.93 1213.51 282.825C1205.94 285.608 1197.64 287 1188.63 287H1159.74ZM1139.53 287V168.597H1169.42V287H1139.53ZM1297.4 287V168.597H1327.29V287H1297.4ZM1321.11 242.745V217.528H1379.73V242.745H1321.11ZM1321.11 193.814V168.597H1382.4V193.814H1321.11ZM1446.62 288.837C1436.6 288.837 1427.75 286.777 1420.07 282.658C1412.5 278.427 1406.6 272.582 1402.37 265.123C1398.14 257.664 1396.02 249.202 1396.02 239.739V168.597H1425.75V241.91C1425.75 246.141 1426.64 249.815 1428.42 252.932C1430.31 255.938 1432.82 258.276 1435.93 259.946C1439.16 261.505 1442.72 262.284 1446.62 262.284C1450.63 262.284 1454.14 261.505 1457.14 259.946C1460.15 258.276 1462.54 255.938 1464.32 252.932C1466.1 249.926 1466.99 246.308 1466.99 242.077V168.597H1497.05V239.906C1497.05 249.369 1494.94 257.831 1490.71 265.29C1486.48 272.638 1480.58 278.427 1473.01 282.658C1465.55 286.777 1456.75 288.837 1446.62 288.837ZM1544.49 287V169.432H1574.39V287H1544.49ZM1508.25 194.315V168.597H1610.62V194.315H1508.25ZM1672.66 288.837C1662.64 288.837 1653.79 286.777 1646.11 282.658C1638.53 278.427 1632.63 272.582 1628.4 265.123C1624.17 257.664 1622.06 249.202 1622.06 239.739V168.597H1651.78V241.91C1651.78 246.141 1652.67 249.815 1654.46 252.932C1656.35 255.938 1658.85 258.276 1661.97 259.946C1665.2 261.505 1668.76 262.284 1672.66 262.284C1676.67 262.284 1680.17 261.505 1683.18 259.946C1686.19 258.276 1688.58 255.938 1690.36 252.932C1692.14 249.926 1693.03 246.308 1693.03 242.077V168.597H1723.09V239.906C1723.09 249.369 1720.98 257.831 1716.75 265.29C1712.52 272.638 1706.61 278.427 1699.04 282.658C1691.58 286.777 1682.79 288.837 1672.66 288.837ZM1765.85 239.071V217.695H1788.39C1793.29 217.695 1797.02 216.526 1799.58 214.188C1802.25 211.739 1803.59 208.454 1803.59 204.335C1803.59 200.327 1802.25 197.098 1799.58 194.649C1797.02 192.088 1793.29 190.808 1788.39 190.808H1765.85V168.597H1792.57C1800.58 168.597 1807.6 170.1 1813.61 173.106C1819.73 176.112 1824.52 180.231 1827.97 185.464C1831.42 190.697 1833.15 196.82 1833.15 203.834C1833.15 210.848 1831.37 217.027 1827.8 222.371C1824.35 227.604 1819.51 231.723 1813.27 234.729C1807.04 237.624 1799.75 239.071 1791.4 239.071H1765.85ZM1742.13 287V168.597H1772.02V287H1742.13ZM1806.26 287L1771.86 236.232L1798.74 229.719L1840.83 287H1806.26ZM1850.58 287V168.597H1880.48V287H1850.58ZM1874.3 287V261.783H1938.43V287H1874.3ZM1874.3 238.904V214.355H1932.41V238.904H1874.3ZM1874.3 193.814V168.597H1937.42V193.814H1874.3ZM2023.18 288.837C2013.27 288.837 2004.64 287.334 1997.3 284.328C1990.06 281.322 1983.44 276.59 1977.42 270.133L1996.29 251.095C2000.41 255.437 2004.81 258.777 2009.49 261.115C2014.16 263.342 2019.45 264.455 2025.35 264.455C2030.36 264.455 2034.2 263.62 2036.88 261.95C2039.66 260.169 2041.05 257.775 2041.05 254.769C2041.05 251.986 2040.05 249.703 2038.04 247.922C2036.04 246.029 2033.37 244.415 2030.03 243.079C2026.8 241.632 2023.18 240.296 2019.17 239.071C2015.28 237.735 2011.32 236.176 2007.32 234.395C2003.42 232.502 1999.8 230.22 1996.46 227.548C1993.23 224.876 1990.62 221.536 1988.61 217.528C1986.61 213.52 1985.61 208.566 1985.61 202.665C1985.61 195.094 1987.39 188.637 1990.95 183.293C1994.62 177.949 1999.69 173.83 2006.15 170.935C2012.61 168.04 2020.12 166.593 2028.69 166.593C2037.27 166.593 2045.17 168.04 2052.41 170.935C2059.64 173.83 2065.6 177.838 2070.28 182.959L2051.24 201.83C2047.68 198.267 2044.06 195.595 2040.38 193.814C2036.71 192.033 2032.7 191.142 2028.36 191.142C2024.24 191.142 2021.01 191.866 2018.67 193.313C2016.33 194.76 2015.17 196.82 2015.17 199.492C2015.17 202.164 2016.17 204.335 2018.17 206.005C2020.18 207.675 2022.79 209.178 2026.02 210.514C2029.36 211.739 2032.98 213.019 2036.88 214.355C2040.88 215.691 2044.84 217.25 2048.73 219.031C2052.63 220.812 2056.19 223.095 2059.42 225.878C2062.76 228.661 2065.43 232.168 2067.44 236.399C2069.44 240.63 2070.44 245.751 2070.44 251.763C2070.44 263.564 2066.27 272.694 2057.92 279.151C2049.68 285.608 2038.1 288.837 2023.18 288.837ZM2110.24 287V169.432H2140.13V287H2110.24ZM2074 194.315V168.597H2176.37V194.315H2074ZM2238.4 288.837C2228.38 288.837 2219.53 286.777 2211.85 282.658C2204.28 278.427 2198.38 272.582 2194.15 265.123C2189.92 257.664 2187.8 249.202 2187.8 239.739V168.597H2217.53V241.91C2217.53 246.141 2218.42 249.815 2220.2 252.932C2222.09 255.938 2224.6 258.276 2227.72 259.946C2230.94 261.505 2234.51 262.284 2238.4 262.284C2242.41 262.284 2245.92 261.505 2248.92 259.946C2251.93 258.276 2254.32 255.938 2256.11 252.932C2257.89 249.926 2258.78 246.308 2258.78 242.077V168.597H2288.84V239.906C2288.84 249.369 2286.72 257.831 2282.49 265.29C2278.26 272.638 2272.36 278.427 2264.79 282.658C2257.33 286.777 2248.53 288.837 2238.4 288.837ZM2328.08 287V261.282H2356.47C2363.15 261.282 2368.94 260.002 2373.84 257.441C2378.85 254.88 2382.69 251.095 2385.36 246.085C2388.04 240.964 2389.37 234.785 2389.37 227.548C2389.37 220.423 2387.98 214.411 2385.2 209.512C2382.53 204.502 2378.74 200.717 2373.84 198.156C2368.94 195.595 2363.15 194.315 2356.47 194.315H2326.75V168.597H2356.64C2365.77 168.597 2374.18 170.044 2381.86 172.939C2389.54 175.722 2396.22 179.73 2401.9 184.963C2407.58 190.196 2411.97 196.43 2415.09 203.667C2418.32 210.904 2419.93 218.92 2419.93 227.715C2419.93 236.622 2418.32 244.693 2415.09 251.93C2411.97 259.167 2407.58 265.401 2401.9 270.634C2396.22 275.867 2389.54 279.93 2381.86 282.825C2374.29 285.608 2365.99 287 2356.97 287H2328.08ZM2307.88 287V168.597H2337.77V287H2307.88ZM2434.92 287V168.597H2464.81V287H2434.92ZM2543.42 289.171C2534.29 289.171 2525.88 287.612 2518.2 284.495C2510.52 281.378 2503.78 277.036 2497.99 271.469C2492.32 265.902 2487.86 259.389 2484.63 251.93C2481.41 244.359 2479.79 236.232 2479.79 227.548C2479.79 218.864 2481.35 210.848 2484.47 203.5C2487.7 196.041 2492.15 189.528 2497.83 183.961C2503.51 178.394 2510.19 174.108 2517.87 171.102C2525.55 167.985 2533.95 166.426 2543.08 166.426C2552.21 166.426 2560.62 167.985 2568.3 171.102C2575.98 174.108 2582.66 178.394 2588.34 183.961C2594.02 189.528 2598.42 196.041 2601.53 203.5C2604.76 210.959 2606.38 219.031 2606.38 227.715C2606.38 236.399 2604.76 244.471 2601.53 251.93C2598.42 259.389 2594.02 265.958 2588.34 271.636C2582.66 277.203 2575.98 281.545 2568.3 284.662C2560.73 287.668 2552.44 289.171 2543.42 289.171ZM2543.08 262.451C2549.76 262.451 2555.55 261.004 2560.45 258.109C2565.35 255.214 2569.14 251.151 2571.81 245.918C2574.48 240.685 2575.82 234.562 2575.82 227.548C2575.82 222.427 2575.04 217.751 2573.48 213.52C2572.03 209.289 2569.86 205.671 2566.97 202.665C2564.07 199.548 2560.62 197.154 2556.61 195.484C2552.6 193.814 2548.09 192.979 2543.08 192.979C2536.4 192.979 2530.61 194.426 2525.72 197.321C2520.82 200.104 2517.03 204.112 2514.36 209.345C2511.69 214.578 2510.35 220.645 2510.35 227.548C2510.35 232.892 2511.08 237.735 2512.52 242.077C2514.08 246.308 2516.31 249.982 2519.2 253.099C2522.1 256.105 2525.55 258.443 2529.56 260.113C2533.57 261.672 2538.07 262.451 2543.08 262.451ZM2655.79 288.837C2645.88 288.837 2637.26 287.334 2629.91 284.328C2622.67 281.322 2616.05 276.59 2610.03 270.133L2628.91 251.095C2633.02 255.437 2637.42 258.777 2642.1 261.115C2646.77 263.342 2652.06 264.455 2657.96 264.455C2662.97 264.455 2666.81 263.62 2669.49 261.95C2672.27 260.169 2673.66 257.775 2673.66 254.769C2673.66 251.986 2672.66 249.703 2670.66 247.922C2668.65 246.029 2665.98 244.415 2662.64 243.079C2659.41 241.632 2655.79 240.296 2651.78 239.071C2647.89 237.735 2643.94 236.176 2639.93 234.395C2636.03 232.502 2632.41 230.22 2629.07 227.548C2625.84 224.876 2623.23 221.536 2621.22 217.528C2619.22 213.52 2618.22 208.566 2618.22 202.665C2618.22 195.094 2620 188.637 2623.56 183.293C2627.24 177.949 2632.3 173.83 2638.76 170.935C2645.22 168.04 2652.73 166.593 2661.3 166.593C2669.88 166.593 2677.78 168.04 2685.02 170.935C2692.25 173.83 2698.21 177.838 2702.89 182.959L2683.85 201.83C2680.29 198.267 2676.67 195.595 2672.99 193.814C2669.32 192.033 2665.31 191.142 2660.97 191.142C2656.85 191.142 2653.62 191.866 2651.28 193.313C2648.95 194.76 2647.78 196.82 2647.78 199.492C2647.78 202.164 2648.78 204.335 2650.78 206.005C2652.79 207.675 2655.4 209.178 2658.63 210.514C2661.97 211.739 2665.59 213.019 2669.49 214.355C2673.49 215.691 2677.45 217.25 2681.34 219.031C2685.24 220.812 2688.8 223.095 2692.03 225.878C2695.37 228.661 2698.04 232.168 2700.05 236.399C2702.05 240.63 2703.05 245.751 2703.05 251.763C2703.05 263.564 2698.88 272.694 2690.53 279.151C2682.29 285.608 2670.71 288.837 2655.79 288.837Z" fill="white"/>
<path d="M214.5 71.5C298.969 71.5 367.5 140.194 367.5 225C367.5 309.806 298.969 378.5 214.5 378.5C130.031 378.5 61.5 309.806 61.5 225C61.5 140.194 130.031 71.5 214.5 71.5Z" stroke="white" stroke-width="21"/>
<path d="M50 265.5L255 40V183.5H378L173 409V265.5H50Z" fill="white" stroke="white" stroke-width="39.67" stroke-linecap="round" stroke-linejoin="round"/>
</svg>
